<?xml version="1.0" encoding="utf-8"?>
<!-- Svg Vector Icons : http://www.onlinewebfonts.com/icon -->
<!DOCTYPE svg PUBLIC "-//W3C//DTD SVG 1.1//EN" "http://www.w3.org/Graphics/SVG/1.1/DTD/svg11.dtd">
<svg version="1.1" xmlns="http://www.w3.org/2000/svg" xmlns:xlink="http://www.w3.org/1999/xlink" x="0px" y="0px" viewBox="0 0 1000 1000" enable-background="new 0 0 1000 1000" xml:space="preserve">
<metadata> Svg Vector Icons : http://www.onlinewebfonts.com/icon </metadata>
<g><g><path d="M747.2,107.9c-15.7-9.1-35.9-3.7-45,12.1l-32.9,57l114,65.8l32.9-57c9.1-15.8,3.7-35.9-12.1-45L747.2,107.9z"/><path d="M248.9,107.9l-57,32.9c-15.7,9.1-21.1,29.2-12.1,45l32.9,57l114-65.8l-32.9-57C284.8,104.2,264.6,98.8,248.9,107.9z"/><path d="M500,158.2c20.8,0,41.2,2,61.3,4.9v-53.3l42.1-0.3V40.6c0-16.9-13.7-30.6-30.6-30.6H427.6C410.7,10,397,23.7,397,40.6v68.9l41.8,0.3v53.3C458.8,160.3,479.2,158.2,500,158.2z"/><path d="M500,335.9c-141.4,0-256,114.6-256,256c0,141.4,114.6,256,256,256c141.4,0,256-114.6,256-256C756,450.5,641.4,335.9,500,335.9z M536.8,638.8c-14.8,13.5-44.4,5.2-66.1-18.6c-21.7-23.8-27.3-54-12.5-67.5c14.8-13.5,147.3-86.6,187.8-92.4C636.5,500,551.6,625.3,536.8,638.8z"/><path d="M500,193.8c-219.9,0-398.1,178.2-398.1,398.1C101.9,811.8,280.1,990,500,990c219.9,0,398.1-178.2,398.1-398.1C898.1,372,719.9,193.8,500,193.8z M500,914.9c-178.4,0-323-144.6-323-323s144.6-323,323-323c178.4,0,323,144.6,323,323C823,770.3,678.4,914.9,500,914.9z"/></g><g></g><g></g><g></g><g></g><g></g><g></g><g></g><g></g><g></g><g></g><g></g><g></g><g></g><g></g><g></g></g>
</svg>